<!-- icon666.com - MILLIONS vector ICONS FREE --><svg id="Layer_1" enable-background="new 0 0 54 48" viewBox="0 0 54 48" xmlns="http://www.w3.org/2000/svg"><path d="m.51 14.854c.472.287 1.087.138 1.375-.333 4.709-7.723 14.344-12.521 25.146-12.521s20.437 4.798 25.146 12.521c.188.309.518.479.855.479.177 0 .357-.047.52-.146.472-.288.621-.903.333-1.375-5.07-8.314-15.359-13.479-26.854-13.479s-21.784 5.165-26.854 13.479c-.288.472-.139 1.087.333 1.375z"></path><path d="m41.475 13.305c-3.283-4.422-8.526-7.305-14.444-7.305-9.925 0-18 8.075-18 18 0 3.871 1.24 7.451 3.328 10.39l7.279-5.271c-1.011-1.455-1.607-3.217-1.607-5.119 0-1.425.331-2.797.983-4.078.128-.25.355-.436.626-.51s.561-.031.799.119c.486.307 1.037.469 1.592.469 1.654 0 3-1.346 3-3 0-.208-.029-.433-.088-.685-.065-.273-.011-.562.148-.794s.409-.386.688-.425c.471-.066.869-.096 1.252-.096 2.925 0 5.52 1.409 7.165 3.577z"></path><path d="m34.03 24c0-.88-.17-1.719-.468-2.495l-10.943 7.924c1.205.981 2.74 1.571 4.411 1.571 3.86 0 7-3.14 7-7z"></path><path d="m27.03 42c9.925 0 18-8.075 18-18 0-3.291-.902-6.368-2.451-9.025l-7.354 5.325c.513 1.13.805 2.38.805 3.7 0 4.962-4.038 9-9 9-2.339 0-4.465-.904-6.067-2.372l-7.354 5.325c3.299 3.7 8.086 6.047 13.421 6.047z"></path><path d="m27.03 17c0 2.757-2.243 5-5 5-.551 0-1.097-.094-1.617-.275-.254.731-.383 1.493-.383 2.275 0 1.464.453 2.823 1.224 3.948l11.324-8.2c-1.281-1.667-3.288-2.748-5.548-2.748z"></path><path d="m53.551 33.146c-.472-.289-1.087-.139-1.375.333-4.709 7.723-14.344 12.521-25.146 12.521s-20.437-4.798-25.146-12.521c-.288-.472-.903-.622-1.375-.333-.472.288-.621.903-.333 1.375 5.07 8.314 15.359 13.479 26.854 13.479s21.784-5.165 26.854-13.479c.287-.472.138-1.087-.333-1.375z"></path></svg>